<svg width="184" height="122" viewBox="0 0 184 122" fill="none" xmlns="http://www.w3.org/2000/svg">
<path d="M87.1084 111.572C86.0793 112.141 85.1361 112.905 84.3369 113.863L84.3301 113.85C84.6061 113.511 84.8965 113.196 85.2021 112.908C85.7851 112.388 86.4261 111.941 87.1084 111.572ZM96.8594 111.572C97.5417 111.941 98.1826 112.389 98.7656 112.908C99.0714 113.196 99.3617 113.512 99.6377 113.851L99.6309 113.863C98.8318 112.905 97.8885 112.141 96.8594 111.572ZM91.9844 110.312C92.4027 110.316 92.8208 110.347 93.2354 110.401C92.4049 110.299 91.5629 110.299 90.7324 110.401C91.1473 110.347 91.5657 110.316 91.9844 110.312ZM91.9834 84.5947C93.8931 87.5321 95.1941 90.5088 95.9795 92.8115L91.9844 99.917L87.9893 92.8115C88.7744 90.5089 90.0741 87.5319 91.9834 84.5947ZM152.943 22.792C159.731 22.792 163.993 25.3041 166.901 28.3926C167.255 28.7686 167.592 29.1592 167.913 29.5586C165.051 29.9223 162.372 30.5828 159.887 31.5576C153.561 34.039 149.104 38.333 146.41 43.5273C142.17 51.7017 142.744 61.0582 144.355 67.9434C141.015 73.3613 137.87 76.1215 135.376 77.4873C132.675 78.9665 130.006 79.224 127.106 78.5928C120.743 77.2069 113.712 71.545 108.583 65.2109L108.093 64.5957L107.728 64.1523C103.893 59.7207 97.189 58.5223 91.9844 61.959C86.7799 58.5232 80.0766 59.7208 76.2422 64.1523L75.877 64.5957C70.7123 71.175 63.4324 77.1623 56.8633 78.5928C53.9638 79.224 51.294 78.9666 48.5928 77.4873C46.0991 76.1214 42.9527 73.3612 39.6123 67.9434C41.2238 61.0583 41.7993 51.7018 37.5596 43.5273C34.8654 38.3331 30.4086 34.039 24.083 31.5576C21.5974 30.5827 18.9176 29.9222 16.0547 29.5586C16.3763 29.1587 16.714 28.769 17.0684 28.3926C19.9764 25.3041 24.2382 22.7922 31.0254 22.792C40.4935 22.792 50.8386 25.9375 59.6025 30.8428C68.3272 35.7263 74.0332 41.5171 76.1826 45.915L76.5752 46.7568C78.6732 51.0397 82.8082 53.4034 86.7549 53.7783C88.2965 53.9247 90.1275 53.7964 91.9844 53.126C93.8412 53.7964 95.6723 53.9246 97.2139 53.7783C101.161 53.4035 105.295 51.0399 107.394 46.7568L107.786 45.915C109.935 41.5171 115.641 35.7264 124.366 30.8428C133.13 25.9374 143.475 22.7921 152.943 22.792ZM92.4971 11.5059C92.3471 11.5147 92.1964 11.5214 92.0459 11.5234C91.8539 11.5232 91.6619 11.5171 91.4707 11.5059C91.4668 11.5006 91.4629 11.4945 91.459 11.4893C91.8086 11.5075 92.1592 11.5075 92.5088 11.4893C92.5048 11.4947 92.5011 11.5004 92.4971 11.5059ZM89.1885 11.1064C89.728 11.263 90.2786 11.3716 90.833 11.4355C90.8345 11.4399 90.8355 11.4449 90.8369 11.4492C90.2783 11.3807 89.7266 11.2652 89.1885 11.1064ZM94.7793 11.1064C94.2411 11.2652 93.6895 11.3808 93.1309 11.4492C93.1323 11.4448 93.1333 11.4399 93.1348 11.4355C93.6893 11.3717 94.2397 11.263 94.7793 11.1064ZM85.5986 9.19922C86.1144 9.62789 86.6629 9.99647 87.2354 10.3057C86.831 10.0891 86.4409 9.84455 86.0684 9.5752C85.9091 9.45631 85.7536 9.3297 85.5986 9.19922ZM98.3643 9.20312C98.2108 9.33213 98.057 9.45755 97.8994 9.5752C97.5267 9.84462 97.137 10.0891 96.7324 10.3057C97.3031 9.9975 97.8499 9.63005 98.3643 9.20312ZM83.0771 6.04688C83.4837 6.84432 83.998 7.5901 84.6123 8.26074L85.0078 8.69238C84.2265 7.94497 83.5619 7.06418 83.0557 6.06934L83.0771 6.04688ZM100.911 6.06836C100.405 7.06347 99.7416 7.94481 98.96 8.69238L99.3564 8.26074C99.9703 7.59069 100.484 6.84487 100.891 6.04688L100.911 6.06836Z" fill="#0A0A0A"/>
<path d="M91.9932 1.50488L93.0992 0.491649C93.0844 0.475511 93.0693 0.459698 93.0538 0.444223L91.9932 1.50488ZM152.951 12.791L152.951 11.291H152.951V12.791ZM31.0332 12.791V11.291H31.0332L31.0332 12.791ZM91.9922 1.50391L93.0528 0.443246L91.9922 1.50391ZM91.991 1.50508L90.885 0.491849L91.991 1.50508ZM81.7745 15.3546L82.9198 14.386L81.7745 15.3546ZM81.8011 12.6285L82.9072 13.6417L81.8011 12.6285ZM89.6058 42.5284L88.1409 42.2061L89.6058 42.5284ZM3.7692 39.7015L3.56786 38.2151L3.7692 39.7015ZM1.55139 37.4666L0.0860114 37.1462L1.55139 37.4666ZM29.2746 70.0158L30.5938 69.3019L29.2746 70.0158ZM29.1271 68.4153L27.6977 67.9605L29.1271 68.4153ZM86.5143 70.3211L87.3596 69.082L86.5143 70.3211ZM83.7498 70.7694L82.5699 69.8432L83.7498 70.7694ZM87.5701 73.9668L86.4568 72.9615L87.5701 73.9668ZM87.2471 70.8211L88.0925 69.582L87.2471 70.8211ZM77.6472 94.8061L78.9548 94.071L77.6472 94.8061ZM77.4329 93.4886L75.9655 93.1777L77.4329 93.4886ZM91.9911 120.321L90.6836 121.056L91.9911 120.321ZM91.9933 120.321L93.3008 121.056L91.9933 120.321ZM106.551 93.4886L108.019 93.1777L106.551 93.4886ZM106.337 94.8061L105.03 94.071L106.337 94.8061ZM96.7369 70.821L97.5824 72.0601L96.7369 70.821ZM96.4141 73.9666L95.3008 74.9719L96.4141 73.9666ZM154.857 68.4153L156.287 67.9605L154.857 68.4153ZM154.71 70.0158L153.391 69.3019L154.71 70.0158ZM182.433 37.4666L183.898 37.1462V37.1462L182.433 37.4666ZM180.215 39.7015L180.417 38.2151L180.215 39.7015ZM94.3785 42.5284L95.8435 42.2061L94.3785 42.5284ZM98.4639 42.2637L99.8339 42.8744L98.4639 42.2637ZM100.234 70.7696L101.414 69.8433L100.234 70.7696ZM97.4691 70.3214L98.3146 71.5604L97.4691 70.3214ZM102.183 12.6285L103.289 11.6152L102.183 12.6285ZM102.21 15.3546L103.355 16.3232L102.21 15.3546ZM91.9932 1.50488L90.8871 2.51812L101.077 13.6417L102.183 12.6285L103.289 11.6152L93.0992 0.491649L91.9932 1.50488ZM102.21 15.3546L101.065 14.386C92.1072 24.977 91.3069 35.5497 92.9136 42.8508L94.3785 42.5284L95.8435 42.2061C94.4209 35.7418 95.0505 26.1426 103.355 16.3232L102.21 15.3546ZM98.4639 42.2637L99.8339 42.8744C102.865 36.0745 110.422 28.9104 120.222 23.4246C129.987 17.9591 141.75 14.291 152.951 14.291V12.791V11.291C141.138 11.291 128.875 15.1437 118.757 20.8068C108.676 26.4496 100.496 34.0218 97.0938 41.6529L98.4639 42.2637ZM152.951 12.791L152.951 14.291C162.223 14.2911 168.682 17.8757 173.097 22.5646C177.549 27.2924 179.963 33.1933 180.968 37.787L182.433 37.4666L183.898 37.1462C182.808 32.1599 180.192 25.7231 175.281 20.5081C170.334 15.2543 163.1 11.2911 152.951 11.291L152.951 12.791ZM180.215 39.7015L180.417 38.2151C173.041 37.216 167.336 37.768 162.998 39.4693C158.627 41.1837 155.73 44.0343 153.963 47.4399C150.486 54.1429 151.488 62.7735 153.428 68.87L154.857 68.4153L156.287 67.9605C154.441 62.1584 153.692 54.4776 156.626 48.8212C158.065 46.047 160.413 43.7059 164.094 42.2621C167.808 40.8052 172.961 40.2325 180.014 41.1879L180.215 39.7015ZM154.71 70.0158L153.391 69.3019C148.968 77.476 144.201 82.3489 139.467 84.9412C134.76 87.5192 129.962 87.9115 125.305 86.8975C115.876 84.8444 107.044 77.016 101.414 69.8433L100.234 70.7696L99.0538 71.6958C104.849 79.0779 114.228 87.5559 124.667 89.8288C129.944 90.9779 135.494 90.5381 140.908 87.5724C146.297 84.6211 151.425 79.2388 156.029 70.7296L154.71 70.0158ZM97.4691 70.3214L96.6236 69.0824L95.8914 69.582L96.7369 70.821L97.5824 72.0601L98.3146 71.5604L97.4691 70.3214ZM96.4141 73.9666L95.3008 74.9719C101.345 81.6654 104.243 89.831 105.084 93.7994L106.551 93.4886L108.019 93.1777C107.098 88.8312 104.01 80.1409 97.5274 72.9613L96.4141 73.9666ZM106.337 94.8061L105.03 94.071L90.6857 119.586L91.9933 120.321L93.3008 121.056L107.645 95.5412L106.337 94.8061ZM91.9932 120.322H90.4932V120.324H91.9932H93.4932V120.322H91.9932ZM91.9912 120.324H93.4912V120.322H91.9912H90.4912V120.324H91.9912ZM91.9911 120.321L93.2986 119.586L78.9548 94.071L77.6472 94.8061L76.3397 95.5412L90.6836 121.056L91.9911 120.321ZM77.4329 93.4886L78.9004 93.7994C79.741 89.831 82.6395 81.6655 88.6834 74.972L87.5701 73.9668L86.4568 72.9615C79.9741 80.141 76.8862 88.8312 75.9655 93.1777L77.4329 93.4886ZM87.2471 70.8211L88.0925 69.582L87.3596 69.082L86.5143 70.3211L85.6689 71.5602L86.4018 72.0602L87.2471 70.8211ZM83.7498 70.7694L82.5699 69.8432C76.9394 77.0159 68.1081 84.8443 58.679 86.8975C54.0221 87.9115 49.2238 87.5192 44.5169 84.9413C39.7838 82.3489 35.0168 77.4761 30.5938 69.3019L29.2746 70.0158L27.9553 70.7296C32.5596 79.2388 37.6874 84.6212 43.0758 87.5725C48.4905 90.5381 54.0402 90.9779 59.3173 89.8288C69.7558 87.5558 79.1349 79.0777 84.9297 71.6956L83.7498 70.7694ZM29.1271 68.4153L30.5565 68.87C32.4962 62.7735 33.498 54.1429 30.0212 47.4399C28.2547 44.0343 25.3569 41.1837 20.9861 39.4693C16.6487 37.768 10.9437 37.216 3.56786 38.2151L3.7692 39.7015L3.97054 41.1879C11.0239 40.2325 16.1764 40.8052 19.8906 42.2621C23.5714 43.7059 25.9192 46.047 27.3581 48.8212C30.292 54.4776 29.5437 62.1584 27.6977 67.9605L29.1271 68.4153ZM1.55139 37.4666L3.01677 37.787C4.0212 33.1933 6.43555 27.2923 10.8872 22.5646C15.3023 17.8756 21.7613 14.2911 31.0332 14.291L31.0332 12.791L31.0332 11.291C20.8846 11.2911 13.65 15.2543 8.70306 20.508C3.79259 25.723 1.17628 32.1598 0.0860114 37.1462L1.55139 37.4666ZM31.0332 12.791V14.291C42.2343 14.291 53.9976 17.9591 63.7621 23.4246C73.5629 28.9104 81.1193 36.0745 84.1504 42.8744L85.5205 42.2637L86.8905 41.6529C83.4888 34.0218 75.3086 26.4496 65.2274 20.8068C55.1098 15.1437 42.8459 11.291 31.0332 11.291V12.791ZM89.6058 42.5284L91.0708 42.8508C92.6775 35.5497 91.8771 24.977 82.9198 14.386L81.7745 15.3546L80.6292 16.3232C88.9338 26.1426 89.5634 35.7418 88.1409 42.2061L89.6058 42.5284ZM81.8011 12.6285L82.9072 13.6417L93.0971 2.51832L91.991 1.50508L90.885 0.491849L80.6951 11.6153L81.8011 12.6285ZM91.9912 1.50461H93.4912V1.50431H91.9912H90.4912V1.50461H91.9912ZM91.9922 1.50391L90.9315 2.56457L90.9325 2.56554L91.9932 1.50488L93.0538 0.444223L93.0528 0.443246L91.9922 1.50391ZM91.9912 1.50431H93.4912C93.4912 2.84016 91.8761 3.50915 90.9315 2.56457L91.9922 1.50391L93.0528 0.443246C92.1075 -0.502062 90.4912 0.167445 90.4912 1.50431H91.9912ZM91.991 1.50508L93.0971 2.51832C93.3501 2.24215 93.4912 1.88068 93.4912 1.50461H91.9912H90.4912C90.4912 1.1289 90.6322 0.767757 90.885 0.491849L91.991 1.50508ZM81.7745 15.3546L82.9198 14.386C82.7134 14.1419 82.7418 13.8222 82.9072 13.6417L81.8011 12.6285L80.6951 11.6153C79.4597 12.9638 79.4965 14.984 80.6292 16.3232L81.7745 15.3546ZM85.5205 42.2637L84.1504 42.8744C84.8027 44.3377 86.2201 45.1875 87.5664 45.3153C88.2561 45.3807 89.0199 45.2661 89.692 44.8484C90.3919 44.4135 90.8802 43.7169 91.0708 42.8508L89.6058 42.5284L88.1409 42.2061C88.1254 42.2762 88.1075 42.3012 88.1071 42.3018C88.1069 42.302 88.1095 42.2998 88.1085 42.3004C88.102 42.3044 88.0251 42.3453 87.8499 42.3287C87.4665 42.2923 87.0574 42.0272 86.8905 41.6529L85.5205 42.2637ZM3.7692 39.7015L3.56786 38.2151C3.3711 38.2417 3.20557 38.1719 3.10632 38.0742C3.01858 37.9878 2.99247 37.8982 3.01677 37.787L1.55139 37.4666L0.0860114 37.1462C-0.458485 39.6365 1.77811 41.4849 3.97054 41.1879L3.7692 39.7015ZM29.2746 70.0158L30.5938 69.3019C30.5283 69.1809 30.5107 69.014 30.5565 68.87L29.1271 68.4153L27.6977 67.9605C27.4089 68.8683 27.4956 69.88 27.9553 70.7296L29.2746 70.0158ZM86.5143 70.3211L87.3596 69.082C85.7933 68.0134 83.7056 68.3965 82.5699 69.8432L83.7498 70.7694L84.9297 71.6956C85.1256 71.446 85.4538 71.4135 85.6689 71.5602L86.5143 70.3211ZM87.5701 73.9668L88.6834 74.972C90.0948 73.409 89.9447 70.8456 88.0925 69.582L87.2471 70.8211L86.4018 72.0602C86.6406 72.2231 86.7419 72.6458 86.4568 72.9615L87.5701 73.9668ZM77.6472 94.8061L78.9548 94.071C78.8923 93.9599 78.8865 93.8651 78.9004 93.7994L77.4329 93.4886L75.9655 93.1777C75.7883 94.0143 75.9502 94.8484 76.3397 95.5412L77.6472 94.8061ZM91.9912 120.322H93.4912C93.4912 120.064 93.4249 119.811 93.2986 119.586L91.9911 120.321L90.6836 121.056C90.5574 120.832 90.4912 120.579 90.4912 120.322H91.9912ZM91.9925 120.324L93.3341 119.653C92.7812 118.547 91.2031 118.547 90.6502 119.653L91.9919 120.324L93.3335 120.995C92.7809 122.1 91.2035 122.1 90.6509 120.995L91.9925 120.324ZM91.9932 120.324H90.4932C90.4932 118.741 92.6264 118.238 93.3341 119.653L91.9925 120.324L90.6509 120.995C91.3589 122.411 93.4932 121.907 93.4932 120.324H91.9932ZM91.9933 120.321L90.6857 119.586C90.5591 119.811 90.4932 120.065 90.4932 120.322H91.9932H93.4932C93.4932 120.578 93.4273 120.831 93.3008 121.056L91.9933 120.321ZM106.551 93.4886L105.084 93.7994C105.098 93.8651 105.092 93.9599 105.03 94.071L106.337 94.8061L107.645 95.5412C108.034 94.8484 108.196 94.0143 108.019 93.1777L106.551 93.4886ZM96.7369 70.821L95.8914 69.582C94.0394 70.8458 93.8895 73.4089 95.3008 74.9719L96.4141 73.9666L97.5274 72.9613C97.2423 72.6456 97.3436 72.223 97.5824 72.0601L96.7369 70.821ZM154.857 68.4153L153.428 68.87C153.474 69.014 153.456 69.1809 153.391 69.3019L154.71 70.0158L156.029 70.7296C156.489 69.88 156.575 68.8683 156.287 67.9605L154.857 68.4153ZM182.433 37.4666L180.968 37.787C180.992 37.8982 180.966 37.9878 180.878 38.0742C180.779 38.1719 180.613 38.2417 180.417 38.2151L180.215 39.7015L180.014 41.1879C182.206 41.4849 184.443 39.6365 183.898 37.1462L182.433 37.4666ZM94.3785 42.5284L92.9136 42.8508C93.1042 43.7169 93.5924 44.4135 94.2924 44.8484C94.9644 45.2661 95.7282 45.3807 96.418 45.3153C97.7643 45.1875 99.1816 44.3377 99.8339 42.8744L98.4639 42.2637L97.0938 41.6529C96.927 42.0272 96.5179 42.2923 96.1344 42.3287C95.9593 42.3453 95.8823 42.3044 95.8759 42.3004C95.8749 42.2998 95.8774 42.302 95.8773 42.3018C95.8768 42.3012 95.8589 42.2762 95.8435 42.2061L94.3785 42.5284ZM100.234 70.7696L101.414 69.8433C100.278 68.3965 98.1899 68.0136 96.6236 69.0824L97.4691 70.3214L98.3146 71.5604C98.5297 71.4136 98.8579 71.4461 99.0538 71.6958L100.234 70.7696ZM91.9919 120.324L90.6502 119.653C91.3579 118.238 93.4912 118.741 93.4912 120.324H91.9912H90.4912C90.4912 121.907 92.6255 122.411 93.3335 120.995L91.9919 120.324ZM102.183 12.6285L101.077 13.6417C101.243 13.8222 101.271 14.1419 101.065 14.386L102.21 15.3546L103.355 16.3232C104.488 14.984 104.525 12.9638 103.289 11.6152L102.183 12.6285Z" fill="#0A0A0A"/>
</svg>
