<svg width="764" height="311" viewBox="0 0 764 311" fill="none" xmlns="http://www.w3.org/2000/svg">
<path d="M142.017 47.48L143.457 67.1L89.9972 159.8C89.9972 159.8 89.3972 160.88 88.1972 163.04C86.9972 165.08 85.7972 167.6 84.5972 170.6C83.5172 173.6 82.9772 176.6 82.9772 179.6H81.1772L74.1572 163.94L142.017 47.48ZM19.9772 162.86V176H-0.0028126V174.2C0.117187 174.2 0.657187 174.2 1.61719 174.2C2.45719 174.2 2.87719 174.2 2.87719 174.2C6.11719 174.2 8.99719 173.24 11.5172 171.32C14.0372 169.28 15.5372 166.46 16.0172 162.86H19.9772ZM27.8972 165.74C27.8972 165.86 27.8972 165.98 27.8972 166.1C27.8972 166.22 27.8972 166.4 27.8972 166.64C27.8972 168.56 28.5572 170.36 29.8772 172.04C31.3172 173.6 32.9972 174.38 34.9172 174.38H37.6172V176H26.6372V165.74H27.8972ZM30.9572 47.48H32.5772L38.8772 65.48L26.8172 176H14.2172L30.9572 47.48ZM32.5772 47.48L91.4372 144.14L81.1772 179.6L27.8972 90.14L32.5772 47.48ZM143.637 47.48L160.737 176H131.757L122.757 93.2L142.017 47.48H143.637ZM155.157 162.86H158.937C159.537 166.46 161.097 169.28 163.617 171.32C166.137 173.24 168.957 174.2 172.077 174.2C172.077 174.2 172.557 174.2 173.517 174.2C174.477 174.2 174.957 174.2 174.957 174.2V176H155.157V162.86ZM130.677 165.74H131.937V176H120.957V174.38H123.657C125.697 174.38 127.377 173.6 128.697 172.04C130.017 170.36 130.677 168.56 130.677 166.64C130.677 166.4 130.677 166.22 130.677 166.1C130.677 165.98 130.677 165.86 130.677 165.74ZM212.826 68V135.86C212.826 146.9 215.346 155.54 220.386 161.78C225.546 168.02 232.686 171.14 241.806 171.14C251.286 171.14 258.606 168.2 263.766 162.32C269.046 156.44 271.746 148.28 271.866 137.84V68H283.746V136.76C283.746 149.6 279.786 159.74 271.866 167.18C264.066 174.62 252.966 178.34 238.566 178.34C221.166 178.34 208.206 174.68 199.686 167.36C191.166 159.92 186.906 149.78 186.906 136.94V68H212.826ZM187.266 68V77.36H186.906C186.786 75.08 185.946 73.22 184.386 71.78C182.826 70.34 180.906 69.62 178.626 69.62C178.626 69.62 178.206 69.62 177.366 69.62C176.526 69.62 176.106 69.62 176.106 69.62V68H187.266ZM223.446 68V69.62C223.446 69.62 223.026 69.62 222.186 69.62C221.346 69.62 220.926 69.62 220.926 69.62C218.646 69.62 216.726 70.34 215.166 71.78C213.606 73.22 212.826 75.08 212.826 77.36H212.466V68H223.446ZM272.226 68V77.36H271.866C271.746 75.08 270.906 73.22 269.346 71.78C267.786 70.34 265.926 69.62 263.766 69.62C263.766 69.62 263.346 69.62 262.506 69.62C261.666 69.62 261.246 69.62 261.246 69.62V68H272.226ZM294.366 68V69.62C294.366 69.62 293.946 69.62 293.106 69.62C292.386 69.62 292.026 69.62 292.026 69.62C289.746 69.62 287.766 70.34 286.086 71.78C284.526 73.22 283.746 75.08 283.746 77.36H283.386V68H294.366ZM341.54 68H360.98C365.9 68 370.7 68.54 375.38 69.62C380.06 70.58 384.26 72.2 387.98 74.48C391.7 76.64 394.64 79.64 396.8 83.48C399.08 87.2 400.22 91.88 400.22 97.52C400.22 101.72 399.32 105.92 397.52 110.12C395.84 114.2 393.14 117.74 389.42 120.74C385.82 123.74 381.08 125.72 375.2 126.68C378.68 127.76 381.98 129.86 385.1 132.98C388.34 136.1 390.86 139.04 392.66 141.8C393.14 142.76 393.98 144.32 395.18 146.48C396.38 148.52 397.88 150.92 399.68 153.68C401.6 156.32 403.58 159.08 405.62 161.96C408.02 165.2 410.12 167.72 411.92 169.52C413.72 171.2 415.58 172.4 417.5 173.12C419.42 173.84 421.64 174.2 424.16 174.2V176H409.04C402.56 176 397.04 175.52 392.48 174.56C388.04 173.6 384.14 171.86 380.78 169.34C377.54 166.7 374.54 163.16 371.78 158.72C370.7 157.16 369.56 155.3 368.36 153.14C367.16 150.86 365.96 148.58 364.76 146.3C363.56 144.02 362.48 141.8 361.52 139.64C360.68 137.48 360.08 135.68 359.72 134.24C358.16 130.4 356.36 127.64 354.32 125.96C352.4 124.16 350.6 123.26 348.92 123.26V121.64C348.92 121.64 349.34 121.64 350.18 121.64C351.02 121.64 352.1 121.64 353.42 121.64C355.94 121.64 358.4 121.22 360.8 120.38C363.32 119.42 365.6 117.68 367.64 115.16C369.68 112.52 371.18 108.68 372.14 103.64C372.38 102.92 372.56 101.9 372.68 100.58C372.92 99.26 372.98 97.76 372.86 96.08C372.62 91.64 371.78 88.1 370.34 85.46C369.02 82.7 367.34 80.66 365.3 79.34C363.26 77.9 361.16 76.94 359 76.46C356.96 75.86 355.16 75.56 353.6 75.56C351.32 75.44 349.22 75.44 347.3 75.56C345.5 75.56 344.12 75.5 343.16 75.38C343.04 75.38 342.86 74.78 342.62 73.58C342.38 72.26 342.14 71 341.9 69.8C341.66 68.6 341.54 68 341.54 68ZM343.34 68V176H317.24V68H343.34ZM317.78 164.66L318.5 176H305.54V174.2C305.66 174.2 305.96 174.2 306.44 174.2C307.04 174.2 307.46 174.2 307.7 174.2C310.34 174.2 312.56 173.3 314.36 171.5C316.28 169.58 317.3 167.3 317.42 164.66H317.78ZM317.78 79.16H317.42C317.3 76.4 316.28 74.18 314.36 72.5C312.56 70.7 310.4 69.8 307.88 69.8C307.52 69.8 307.04 69.8 306.44 69.8C305.96 69.8 305.66 69.8 305.54 69.8V68H318.5L317.78 79.16ZM342.98 164.66H343.34C343.34 167.66 344.36 170 346.4 171.68C348.56 173.36 350.84 174.2 353.24 174.2C353.24 174.2 353.48 174.2 353.96 174.2C354.44 174.2 354.8 174.2 355.04 174.2V176H342.08L342.98 164.66ZM460.017 68H479.457C484.377 68 489.177 68.54 493.857 69.62C498.537 70.58 502.737 72.2 506.457 74.48C510.177 76.64 513.117 79.64 515.277 83.48C517.557 87.2 518.697 91.88 518.697 97.52C518.697 101.72 517.797 105.92 515.997 110.12C514.317 114.2 511.617 117.74 507.897 120.74C504.297 123.74 499.557 125.72 493.677 126.68C497.157 127.76 500.457 129.86 503.577 132.98C506.817 136.1 509.337 139.04 511.137 141.8C511.617 142.76 512.457 144.32 513.657 146.48C514.857 148.52 516.357 150.92 518.157 153.68C520.077 156.32 522.057 159.08 524.097 161.96C526.497 165.2 528.597 167.72 530.397 169.52C532.197 171.2 534.057 172.4 535.977 173.12C537.897 173.84 540.117 174.2 542.637 174.2V176H527.517C521.037 176 515.517 175.52 510.957 174.56C506.517 173.6 502.617 171.86 499.257 169.34C496.017 166.7 493.017 163.16 490.257 158.72C489.177 157.16 488.037 155.3 486.837 153.14C485.637 150.86 484.437 148.58 483.237 146.3C482.037 144.02 480.957 141.8 479.997 139.64C479.157 137.48 478.557 135.68 478.197 134.24C476.637 130.4 474.837 127.64 472.797 125.96C470.877 124.16 469.077 123.26 467.397 123.26V121.64C467.397 121.64 467.817 121.64 468.657 121.64C469.497 121.64 470.577 121.64 471.897 121.64C474.417 121.64 476.877 121.22 479.277 120.38C481.797 119.42 484.077 117.68 486.117 115.16C488.157 112.52 489.657 108.68 490.617 103.64C490.857 102.92 491.037 101.9 491.157 100.58C491.397 99.26 491.457 97.76 491.337 96.08C491.097 91.64 490.257 88.1 488.817 85.46C487.497 82.7 485.817 80.66 483.777 79.34C481.737 77.9 479.637 76.94 477.477 76.46C475.437 75.86 473.637 75.56 472.077 75.56C469.797 75.44 467.697 75.44 465.777 75.56C463.977 75.56 462.597 75.5 461.637 75.38C461.517 75.38 461.337 74.78 461.097 73.58C460.857 72.26 460.617 71 460.377 69.8C460.137 68.6 460.017 68 460.017 68ZM461.817 68V176H435.717V68H461.817ZM436.257 164.66L436.977 176H424.017V174.2C424.137 174.2 424.437 174.2 424.917 174.2C425.517 174.2 425.937 174.2 426.177 174.2C428.817 174.2 431.037 173.3 432.837 171.5C434.757 169.58 435.777 167.3 435.897 164.66H436.257ZM436.257 79.16H435.897C435.777 76.4 434.757 74.18 432.837 72.5C431.037 70.7 428.877 69.8 426.357 69.8C425.997 69.8 425.517 69.8 424.917 69.8C424.437 69.8 424.137 69.8 424.017 69.8V68H436.977L436.257 79.16ZM461.457 164.66H461.817C461.817 167.66 462.837 170 464.877 171.68C467.037 173.36 469.317 174.2 471.717 174.2C471.717 174.2 471.957 174.2 472.437 174.2C472.917 174.2 473.277 174.2 473.517 174.2V176H460.557L461.457 164.66ZM595.873 63.14L649.153 175.1H618.733L585.253 96.08L595.873 63.14ZM562.033 164.12C560.713 167.36 560.893 169.88 562.573 171.68C564.253 173.36 566.113 174.2 568.153 174.2H569.593V176H533.593V174.2C533.593 174.2 533.833 174.2 534.313 174.2C534.793 174.2 535.033 174.2 535.033 174.2C537.433 174.2 539.953 173.48 542.593 172.04C545.233 170.48 547.393 167.84 549.073 164.12H562.033ZM595.873 63.14L596.233 84.74L557.173 175.46H543.853L585.973 84.92C586.213 84.2 586.753 82.94 587.593 81.14C588.433 79.22 589.333 77.12 590.293 74.84C591.253 72.44 592.153 70.22 592.993 68.18C593.833 66.02 594.313 64.34 594.433 63.14H595.873ZM611.533 140.72V147.74H565.633V140.72H611.533ZM614.233 164.12H643.933C645.733 167.84 647.953 170.48 650.593 172.04C653.233 173.48 655.753 174.2 658.153 174.2C658.153 174.2 658.393 174.2 658.873 174.2C659.353 174.2 659.593 174.2 659.593 174.2V176H606.673V174.2H608.113C610.153 174.2 612.013 173.36 613.693 171.68C615.373 169.88 615.553 167.36 614.233 164.12ZM675.51 68.18L709.35 126.68L685.41 129.38L645.99 68.18H675.51ZM710.43 127.04V176H684.51V127.4L710.43 127.04ZM735.99 68.18H749.31L708.63 130.64L700.17 129.02L735.99 68.18ZM729.51 79.16C730.83 76.88 730.83 74.78 729.51 72.86C728.19 70.82 726.39 69.8 724.11 69.8C724.11 69.8 723.75 69.8 723.03 69.8C722.31 69.8 721.95 69.8 721.95 69.8V68H760.65V69.8H758.31C755.07 69.8 752.01 70.7 749.13 72.5C746.37 74.18 744.15 76.22 742.47 78.62L729.51 79.16ZM681.81 79.16L652.65 78.62C650.97 76.1 648.75 74 645.99 72.32C643.23 70.64 640.17 69.8 636.81 69.8H634.65V68H689.37V69.8C689.37 69.8 689.01 69.8 688.29 69.8C687.69 69.8 687.39 69.8 687.39 69.8C684.99 69.8 683.13 70.82 681.81 72.86C680.61 74.9 680.61 77 681.81 79.16ZM685.05 164.66V176H672.27V174.2C672.39 174.2 672.75 174.2 673.35 174.2C674.07 174.2 674.43 174.2 674.43 174.2C677.19 174.2 679.53 173.3 681.45 171.5C683.37 169.58 684.39 167.3 684.51 164.66H685.05ZM710.07 164.66H710.43C710.55 167.3 711.57 169.58 713.49 171.5C715.53 173.3 717.87 174.2 720.51 174.2C720.51 174.2 720.87 174.2 721.59 174.2C722.31 174.2 722.67 174.2 722.67 174.2V176H710.07V164.66Z" fill="#0A0A0A"/>
<path d="M17.4172 204H34.7172C39.5839 204 43.9172 204.6 47.7172 205.8C51.5839 206.933 54.6172 208.767 56.8172 211.3C59.0172 213.767 60.1172 217.033 60.1172 221.1C60.1172 224.167 59.5172 226.767 58.3172 228.9C57.1839 231.033 55.6839 232.667 53.8172 233.8C51.9505 234.933 49.9839 235.633 47.9172 235.9C51.2505 236.167 54.2505 237.1 56.9172 238.7C59.6505 240.3 61.7839 242.433 63.3172 245.1C64.8505 247.767 65.6172 250.9 65.6172 254.5C65.6172 258.767 64.4505 262.367 62.1172 265.3C59.7839 268.167 56.4839 270.333 52.2172 271.8C48.0172 273.267 43.1172 274 37.5172 274H27.6172C27.6172 274 27.6172 273.633 27.6172 272.9C27.6839 272.1 27.7172 271.333 27.7172 270.6C27.7172 269.867 27.7172 269.5 27.7172 269.5H33.1172C36.1172 269.5 38.7505 268.933 41.0172 267.8C43.3505 266.667 45.1505 264.9 46.4172 262.5C47.7505 260.1 48.4172 257.033 48.4172 253.3C48.4172 250.367 47.9505 247.867 47.0172 245.8C46.1505 243.733 44.9505 242.067 43.4172 240.8C41.9505 239.467 40.2172 238.5 38.2172 237.9C36.2172 237.3 34.1172 237 31.9172 237V236.1C33.4505 236.1 34.9505 235.867 36.4172 235.4C37.8839 234.867 39.1839 234.067 40.3172 233C41.5172 231.933 42.4505 230.533 43.1172 228.8C43.7839 227 44.1172 224.867 44.1172 222.4C44.1172 219 43.5839 216.267 42.5172 214.2C41.5172 212.133 40.0505 210.633 38.1172 209.7C36.1839 208.767 33.9505 208.3 31.4172 208.3H18.4172C18.4172 208.233 18.3172 207.867 18.1172 207.2C17.9839 206.467 17.8172 205.767 17.6172 205.1C17.4839 204.367 17.4172 204 17.4172 204ZM28.5172 204V274H13.5172V204H28.5172ZM13.8172 266.7V274H5.81719V273C5.95052 273 6.18385 273 6.51719 273C6.85052 273 7.05052 273 7.11719 273C8.85052 273 10.3172 272.4 11.5172 271.2C12.7839 269.933 13.4505 268.433 13.5172 266.7H13.8172ZM13.8172 211.3H13.5172C13.4505 209.567 12.7839 208.1 11.5172 206.9C10.3172 205.633 8.85052 205 7.11719 205C7.05052 205 6.85052 205 6.51719 205C6.18385 205 5.95052 205 5.81719 205V204H13.8172V211.3ZM120.1 214V251.7C120.1 257.833 121.5 262.633 124.3 266.1C127.167 269.567 131.133 271.3 136.2 271.3C141.467 271.3 145.533 269.667 148.4 266.4C151.333 263.133 152.833 258.6 152.9 252.8V214H159.5V252.2C159.5 259.333 157.3 264.967 152.9 269.1C148.567 273.233 142.4 275.3 134.4 275.3C124.733 275.3 117.533 273.267 112.8 269.2C108.067 265.067 105.7 259.433 105.7 252.3V214H120.1ZM105.9 214V219.2H105.7C105.633 217.933 105.167 216.9 104.3 216.1C103.433 215.3 102.367 214.9 101.1 214.9C101.1 214.9 100.867 214.9 100.4 214.9C99.9333 214.9 99.7 214.9 99.7 214.9V214H105.9ZM126 214V214.9C126 214.9 125.767 214.9 125.3 214.9C124.833 214.9 124.6 214.9 124.6 214.9C123.333 214.9 122.267 215.3 121.4 216.1C120.533 216.9 120.1 217.933 120.1 219.2H119.9V214H126ZM153.1 214V219.2H152.9C152.833 217.933 152.367 216.9 151.5 216.1C150.633 215.3 149.6 214.9 148.4 214.9C148.4 214.9 148.167 214.9 147.7 214.9C147.233 214.9 147 214.9 147 214.9V214H153.1ZM165.4 214V214.9C165.4 214.9 165.167 214.9 164.7 214.9C164.3 214.9 164.1 214.9 164.1 214.9C162.833 214.9 161.733 215.3 160.8 216.1C159.933 216.9 159.5 217.933 159.5 219.2H159.3V214H165.4ZM258.42 248.9L259.52 264C258.253 266.133 256.486 268.067 254.22 269.8C251.953 271.467 249.186 272.8 245.92 273.8C242.653 274.8 238.853 275.3 234.52 275.3C227.053 275.233 220.62 273.967 215.22 271.5C209.82 269.033 205.653 265.5 202.72 260.9C199.853 256.233 198.42 250.567 198.42 243.9C198.42 237.367 199.853 231.8 202.72 227.2C205.586 222.533 209.72 218.967 215.12 216.5C220.52 213.967 226.986 212.7 234.52 212.7C239.053 212.7 243.253 213.133 247.12 214C251.053 214.867 254.32 215.967 256.92 217.3L257.02 233.2H256.22C254.553 227.067 251.92 222.767 248.32 220.3C244.72 217.833 240.453 216.6 235.52 216.6C230.653 216.6 226.586 217.733 223.32 220C220.12 222.267 217.686 225.433 216.02 229.5C214.42 233.567 213.62 238.333 213.62 243.8C213.62 249.333 214.42 254.133 216.02 258.2C217.686 262.267 220.086 265.433 223.22 267.7C226.353 269.967 230.12 271.167 234.52 271.3C239.253 271.3 243.153 270.567 246.22 269.1C249.353 267.633 251.82 265.267 253.62 262C255.486 258.733 256.82 254.367 257.62 248.9H258.42ZM356.381 214V274H342.081V214H356.381ZM315.681 214V274H301.281V214H315.681ZM342.881 242.1V246.1H314.781V242.1H342.881ZM301.581 267.7V274H294.681V273C294.681 273 294.848 273 295.181 273C295.581 273 295.815 273 295.881 273C297.348 273 298.615 272.5 299.681 271.5C300.748 270.433 301.281 269.167 301.281 267.7H301.581ZM315.481 267.7H315.681C315.748 269.167 316.315 270.433 317.381 271.5C318.448 272.5 319.715 273 321.181 273C321.181 273 321.348 273 321.681 273C322.081 273 322.281 273 322.281 273V274H315.481V267.7ZM315.481 220.3V214H322.281V215C322.281 215 322.081 215 321.681 215C321.348 215 321.181 215 321.181 215C319.715 215 318.448 215.5 317.381 216.5C316.315 217.5 315.748 218.767 315.681 220.3H315.481ZM301.581 220.3H301.281C301.281 218.767 300.748 217.5 299.681 216.5C298.615 215.5 297.348 215 295.881 215C295.815 215 295.581 215 295.181 215C294.848 215 294.681 215 294.681 215V214H301.581V220.3ZM342.281 267.7V274H335.481V273C335.481 273 335.648 273 335.981 273C336.381 273 336.581 273 336.581 273C338.048 273 339.315 272.5 340.381 271.5C341.448 270.433 341.981 269.167 341.981 267.7H342.281ZM356.081 267.7H356.381C356.448 269.167 356.981 270.433 357.981 271.5C359.048 272.5 360.348 273 361.881 273C361.881 273 362.048 273 362.381 273C362.781 273 362.981 273 362.981 273V274H356.081V267.7ZM356.181 220.3V214H363.081V215C363.081 215 362.881 215 362.481 215C362.081 215 361.881 215 361.881 215C360.348 215 359.048 215.5 357.981 216.5C356.981 217.5 356.481 218.767 356.481 220.3H356.181ZM342.281 220.3H341.981C341.981 218.767 341.448 217.5 340.381 216.5C339.315 215.5 338.048 215 336.581 215C336.581 215 336.381 215 335.981 215C335.648 215 335.481 215 335.481 215V214H342.281V220.3ZM426.279 211.3L455.879 273.5H438.979L420.379 229.6L426.279 211.3ZM407.479 267.4C406.746 269.2 406.846 270.6 407.779 271.6C408.712 272.533 409.746 273 410.879 273H411.679V274H391.679V273C391.679 273 391.812 273 392.079 273C392.346 273 392.479 273 392.479 273C393.812 273 395.212 272.6 396.679 271.8C398.146 270.933 399.346 269.467 400.279 267.4H407.479ZM426.279 211.3L426.479 223.3L404.779 273.7H397.379L420.779 223.4C420.912 223 421.212 222.3 421.679 221.3C422.146 220.233 422.646 219.067 423.179 217.8C423.712 216.467 424.212 215.233 424.679 214.1C425.146 212.9 425.412 211.967 425.479 211.3H426.279ZM434.979 254.4V258.3H409.479V254.4H434.979ZM436.479 267.4H452.979C453.979 269.467 455.212 270.933 456.679 271.8C458.146 272.6 459.546 273 460.879 273C460.879 273 461.012 273 461.279 273C461.546 273 461.679 273 461.679 273V274H432.279V273H433.079C434.212 273 435.246 272.533 436.179 271.6C437.112 270.6 437.212 269.2 436.479 267.4ZM495.834 212.6L554.534 264.2L555.534 275.3L496.934 223.7L495.834 212.6ZM496.234 267.9V274H488.834V273C488.834 273 489.101 273 489.634 273C490.168 273 490.434 273 490.434 273C491.968 273 493.268 272.533 494.334 271.6C495.401 270.6 495.934 269.367 495.934 267.9H496.234ZM509.634 267.9C509.701 269.367 510.268 270.6 511.334 271.6C512.401 272.533 513.668 273 515.134 273C515.134 273 515.401 273 515.934 273C516.534 273 516.834 273 516.834 273V274H509.434V267.9H509.634ZM495.834 212.6L509.634 227.6V274H495.934V224C495.934 220.6 495.768 217.867 495.434 215.8C495.101 213.667 494.934 212.6 494.934 212.6H495.834ZM555.434 214V263.6C555.434 265.933 555.501 268 555.634 269.8C555.834 271.533 556.001 272.9 556.134 273.9C556.334 274.833 556.434 275.3 556.434 275.3H555.534L541.734 259.4V214H555.434ZM555.134 220.1V214H562.634V215C562.634 215 562.334 215 561.734 215C561.201 215 560.934 215 560.934 215C559.468 215 558.168 215.5 557.034 216.5C555.968 217.433 555.434 218.633 555.434 220.1H555.134ZM541.734 220.1C541.668 218.633 541.101 217.433 540.034 216.5C539.034 215.5 537.768 215 536.234 215C536.234 215 535.934 215 535.334 215C534.801 215 534.534 215 534.534 215V214H541.934V220.1H541.734ZM624.564 211.3L654.164 273.5H637.264L618.664 229.6L624.564 211.3ZM605.764 267.4C605.031 269.2 605.131 270.6 606.064 271.6C606.997 272.533 608.031 273 609.164 273H609.964V274H589.964V273C589.964 273 590.097 273 590.364 273C590.631 273 590.764 273 590.764 273C592.097 273 593.497 272.6 594.964 271.8C596.431 270.933 597.631 269.467 598.564 267.4H605.764ZM624.564 211.3L624.764 223.3L603.064 273.7H595.664L619.064 223.4C619.197 223 619.497 222.3 619.964 221.3C620.431 220.233 620.931 219.067 621.464 217.8C621.997 216.467 622.497 215.233 622.964 214.1C623.431 212.9 623.697 211.967 623.764 211.3H624.564ZM633.264 254.4V258.3H607.764V254.4H633.264ZM634.764 267.4H651.264C652.264 269.467 653.497 270.933 654.964 271.8C656.431 272.6 657.831 273 659.164 273C659.164 273 659.297 273 659.564 273C659.831 273 659.964 273 659.964 273V274H630.564V273H631.364C632.497 273 633.531 272.533 634.464 271.6C635.397 270.6 635.497 269.2 634.764 267.4ZM694.12 212.6L752.82 264.2L753.82 275.3L695.22 223.7L694.12 212.6ZM694.52 267.9V274H687.12V273C687.12 273 687.386 273 687.92 273C688.453 273 688.72 273 688.72 273C690.253 273 691.553 272.533 692.62 271.6C693.686 270.6 694.22 269.367 694.22 267.9H694.52ZM707.92 267.9C707.986 269.367 708.553 270.6 709.62 271.6C710.686 272.533 711.953 273 713.42 273C713.42 273 713.686 273 714.22 273C714.82 273 715.12 273 715.12 273V274H707.72V267.9H707.92ZM694.12 212.6L707.92 227.6V274H694.22V224C694.22 220.6 694.053 217.867 693.72 215.8C693.386 213.667 693.22 212.6 693.22 212.6H694.12ZM753.72 214V263.6C753.72 265.933 753.786 268 753.92 269.8C754.12 271.533 754.286 272.9 754.42 273.9C754.62 274.833 754.72 275.3 754.72 275.3H753.82L740.02 259.4V214H753.72ZM753.42 220.1V214H760.92V215C760.92 215 760.62 215 760.02 215C759.486 215 759.22 215 759.22 215C757.753 215 756.453 215.5 755.32 216.5C754.253 217.433 753.72 218.633 753.72 220.1H753.42ZM740.02 220.1C739.953 218.633 739.386 217.433 738.32 216.5C737.32 215.5 736.053 215 734.52 215C734.52 215 734.22 215 733.62 215C733.086 215 732.82 215 732.82 215V214H740.22V220.1H740.02Z" fill="#0A0A0A"/>
</svg>
