<svg width="393" height="59" viewBox="0 0 393 59" fill="none" xmlns="http://www.w3.org/2000/svg">
<path d="M24.2172 17.99C23.4239 18.7833 22.4205 19.2267 21.2072 19.32C20.0405 19.3667 18.8972 19.11 17.7772 18.55C16.7039 17.9433 15.8872 17.0333 15.3272 15.82C14.4872 13.86 14.1839 11.9233 14.4172 10.01C14.6505 8.05 15.2805 6.3 16.3072 4.76C17.3805 3.22 18.7105 2.05333 20.2972 1.26C21.9305 0.419997 23.6805 0.116663 25.5472 0.349996L25.7572 1.26C24.6372 1.68 23.7505 2.35666 23.0972 3.29C22.4905 4.22333 22.2339 5.27333 22.3272 6.44C22.4205 7.56 22.9805 8.70333 24.0072 9.87C24.6605 10.6167 25.1272 11.5033 25.4072 12.53C25.6872 13.51 25.7339 14.49 25.5472 15.47C25.4072 16.45 24.9639 17.29 24.2172 17.99ZM10.1472 17.99C9.35385 18.7833 8.35052 19.2267 7.13719 19.32C5.97052 19.3667 4.82719 19.11 3.70719 18.55C2.63385 17.9433 1.81719 17.0333 1.25719 15.82C0.417188 13.86 0.113854 11.9233 0.347188 10.01C0.580521 8.05 1.21052 6.3 2.23719 4.76C3.31052 3.22 4.64052 2.05333 6.22719 1.26C7.86052 0.419997 9.61052 0.116663 11.4772 0.349996L11.6872 1.26C10.5672 1.68 9.68052 2.35666 9.02719 3.29C8.42052 4.22333 8.16385 5.27333 8.25719 6.44C8.35052 7.56 8.91052 8.70333 9.93719 9.87C10.5905 10.6167 11.0572 11.5033 11.3372 12.53C11.6172 13.51 11.6639 14.49 11.4772 15.47C11.3372 16.45 10.8939 17.29 10.1472 17.99ZM79.5199 38.15V49.7C78.3999 51.1 76.7199 52.5 74.4799 53.9C72.2866 55.3 69.6499 56.4667 66.5699 57.4C63.4899 58.2867 60.0599 58.73 56.2799 58.73C50.9599 58.73 46.3166 57.7033 42.3499 55.65C38.3833 53.55 35.3033 50.5867 33.1099 46.76C30.9166 42.9333 29.8199 38.4067 29.8199 33.18C29.8199 27.9533 30.8933 23.45 33.0399 19.67C35.2333 15.89 38.3366 12.9733 42.3499 10.92C46.4099 8.82 51.1933 7.77 56.6999 7.77C59.2666 7.77 61.7633 7.95666 64.1899 8.33C66.6166 8.65666 68.8566 9.1 70.9099 9.66C72.9633 10.22 74.6666 10.8733 76.0199 11.62L76.1599 23.59H75.5299C74.6433 20.4167 73.3599 17.8967 71.6799 16.03C69.9999 14.1167 68.0399 12.7633 65.7999 11.97C63.6066 11.13 61.2733 10.71 58.7999 10.71C55.0199 10.71 51.7999 11.6433 49.1399 13.51C46.5266 15.33 44.5433 17.9433 43.1899 21.35C41.8833 24.7567 41.2299 28.84 41.2299 33.6C41.2299 38.08 41.8366 42 43.0499 45.36C44.3099 48.6733 46.1299 51.24 48.5099 53.06C50.8899 54.8333 53.7833 55.7433 57.1899 55.79C58.9166 55.79 60.5733 55.5333 62.1599 55.02C63.7933 54.46 65.2166 53.6667 66.4299 52.64C67.6433 51.6133 68.5066 50.3533 69.0199 48.86L69.0899 38.15C69.0899 36.05 67.8999 35 65.5199 35H64.3999V34.3H84.0699V35H83.0199C80.5933 35 79.4266 36.05 79.5199 38.15ZM109.009 7.35L131.899 57.33H119.299L104.739 20.86L109.009 7.35ZM93.9585 52.64C93.5852 53.5733 93.5152 54.3667 93.7485 55.02C93.9818 55.6733 94.3785 56.1867 94.9385 56.56C95.4985 56.8867 96.0585 57.05 96.6185 57.05H97.2485V57.75H82.2685V57.05C82.2685 57.05 82.3852 57.05 82.6185 57.05C82.8052 57.05 82.8985 57.05 82.8985 57.05C83.9718 57.05 85.0685 56.7233 86.1885 56.07C87.3552 55.37 88.3118 54.2267 89.0585 52.64H93.9585ZM109.009 7.35L109.289 15.89L91.9285 57.54H86.8185L104.949 16.52C105.089 16.24 105.322 15.7267 105.649 14.98C106.022 14.1867 106.395 13.3 106.769 12.32C107.189 11.34 107.562 10.4067 107.889 9.52C108.215 8.58666 108.379 7.86333 108.379 7.35H109.009ZM116.359 41.09V44.03H95.7785V41.09H116.359ZM117.409 52.64H129.659C130.452 54.2267 131.409 55.37 132.529 56.07C133.649 56.7233 134.745 57.05 135.819 57.05C135.819 57.05 135.912 57.05 136.099 57.05C136.285 57.05 136.379 57.05 136.379 57.05V57.75H114.119V57.05H114.749C115.682 57.05 116.499 56.6767 117.199 55.93C117.899 55.1367 117.969 54.04 117.409 52.64ZM153.234 8.75V57.75H142.734V8.75H153.234ZM171.714 54.74L173.394 57.75H153.024V54.74H171.714ZM176.824 43.4L173.604 57.75H159.884L162.404 54.74C164.738 54.74 166.791 54.2967 168.564 53.41C170.338 52.4767 171.854 51.17 173.114 49.49C174.374 47.7633 175.378 45.7333 176.124 43.4H176.824ZM142.944 52.64V57.75H137.344V57.05C137.344 57.05 137.484 57.05 137.764 57.05C138.091 57.05 138.254 57.05 138.254 57.05C139.468 57.05 140.494 56.63 141.334 55.79C142.221 54.9033 142.688 53.8533 142.734 52.64H142.944ZM142.944 13.86H142.734C142.688 12.6467 142.221 11.62 141.334 10.78C140.494 9.89333 139.468 9.45 138.254 9.45C138.254 9.45 138.091 9.45 137.764 9.45C137.484 9.45 137.344 9.45 137.344 9.45V8.75H142.944V13.86ZM153.024 13.86V8.75H158.624V9.45C158.578 9.45 158.414 9.45 158.134 9.45C157.854 9.45 157.714 9.45 157.714 9.45C156.501 9.45 155.451 9.89333 154.564 10.78C153.724 11.62 153.281 12.6467 153.234 13.86H153.024ZM196.027 8.75V57.75H185.527V8.75H196.027ZM214.507 54.74L216.187 57.75H195.817V54.74H214.507ZM219.617 43.4L216.397 57.75H202.677L205.197 54.74C207.531 54.74 209.584 54.2967 211.357 53.41C213.131 52.4767 214.647 51.17 215.907 49.49C217.167 47.7633 218.171 45.7333 218.917 43.4H219.617ZM185.737 52.64V57.75H180.137V57.05C180.137 57.05 180.277 57.05 180.557 57.05C180.884 57.05 181.047 57.05 181.047 57.05C182.261 57.05 183.287 56.63 184.127 55.79C185.014 54.9033 185.481 53.8533 185.527 52.64H185.737ZM185.737 13.86H185.527C185.481 12.6467 185.014 11.62 184.127 10.78C183.287 9.89333 182.261 9.45 181.047 9.45C181.047 9.45 180.884 9.45 180.557 9.45C180.277 9.45 180.137 9.45 180.137 9.45V8.75H185.737V13.86ZM195.817 13.86V8.75H201.417V9.45C201.371 9.45 201.207 9.45 200.927 9.45C200.647 9.45 200.507 9.45 200.507 9.45C199.294 9.45 198.244 9.89333 197.357 10.78C196.517 11.62 196.074 12.6467 196.027 13.86H195.817ZM238.82 8.75V57.75H228.32V8.75H238.82ZM257.3 54.74L258.98 57.75H238.61V54.74H257.3ZM254.71 32.13V35.07H238.61V32.13H254.71ZM258.14 8.75V11.76H238.61V8.75H258.14ZM262.41 43.4L259.19 57.75H245.47L247.99 54.74C250.324 54.74 252.377 54.2967 254.15 53.41C255.924 52.4767 257.44 51.17 258.7 49.49C259.96 47.7633 260.964 45.7333 261.71 43.4H262.41ZM254.71 34.93V41.65H254.01V41.09C254.01 39.3633 253.45 37.94 252.33 36.82C251.21 35.7 249.787 35.1167 248.06 35.07V34.93H254.71ZM254.71 25.55V32.27H248.06V32.13C249.787 32.0833 251.21 31.5 252.33 30.38C253.45 29.2133 254.01 27.7667 254.01 26.04V25.55H254.71ZM258.14 11.55V19.74H257.44V18.9C257.44 16.7533 256.787 15.0267 255.48 13.72C254.22 12.4133 252.494 11.7367 250.3 11.69V11.55H258.14ZM258.14 7.49V9.52L249.6 8.75C250.627 8.75 251.7 8.68 252.82 8.54C253.987 8.4 255.06 8.23666 256.04 8.05C257.02 7.86333 257.72 7.67666 258.14 7.49ZM228.53 52.64V57.75H222.93V57.05C222.93 57.05 223.07 57.05 223.35 57.05C223.677 57.05 223.84 57.05 223.84 57.05C225.054 57.05 226.08 56.63 226.92 55.79C227.807 54.9033 228.274 53.8533 228.32 52.64H228.53ZM228.53 13.86H228.32C228.274 12.6467 227.807 11.62 226.92 10.78C226.08 9.89333 225.054 9.45 223.84 9.45C223.84 9.45 223.677 9.45 223.35 9.45C223.07 9.45 222.93 9.45 222.93 9.45V8.75H228.53V13.86ZM282.075 8.75H291.105C293.205 8.75 295.259 8.98333 297.265 9.45C299.272 9.91666 301.045 10.6633 302.585 11.69C304.172 12.7167 305.432 14.07 306.365 15.75C307.299 17.43 307.765 19.5067 307.765 21.98C307.765 23.94 307.345 25.9 306.505 27.86C305.712 29.7733 304.475 31.43 302.795 32.83C301.115 34.1833 298.945 35 296.285 35.28C297.779 35.7467 299.132 36.5867 300.345 37.8C301.605 39.0133 302.632 40.2267 303.425 41.44C303.472 41.5333 303.729 41.9533 304.195 42.7C304.709 43.4467 305.315 44.38 306.015 45.5C306.762 46.5733 307.532 47.67 308.325 48.79C309.119 49.91 309.842 50.89 310.495 51.73C311.522 52.99 312.455 54.0167 313.295 54.81C314.135 55.5567 315.022 56.1167 315.955 56.49C316.889 56.8167 317.962 57.0033 319.175 57.05V57.75H312.315C309.795 57.75 307.509 57.54 305.455 57.12C303.402 56.6533 301.582 55.8833 299.995 54.81C298.409 53.7367 297.032 52.29 295.865 50.47C295.492 49.91 295.072 49.21 294.605 48.37C294.185 47.4833 293.742 46.55 293.275 45.57C292.809 44.59 292.342 43.6567 291.875 42.77C291.455 41.8367 291.082 40.9967 290.755 40.25C290.429 39.5033 290.195 38.92 290.055 38.5C289.449 37.0067 288.725 35.8867 287.885 35.14C287.092 34.3933 286.229 33.95 285.295 33.81V33.11C285.435 33.11 285.715 33.11 286.135 33.11C286.555 33.11 286.999 33.11 287.465 33.11C288.725 33.11 289.939 32.8533 291.105 32.34C292.319 31.8267 293.392 30.9867 294.325 29.82C295.259 28.6533 295.912 27.0433 296.285 24.99C296.379 24.57 296.449 24.08 296.495 23.52C296.589 22.96 296.612 22.33 296.565 21.63C296.425 18.27 295.585 15.82 294.045 14.28C292.505 12.6933 290.592 11.8767 288.305 11.83C287.652 11.7833 286.929 11.7833 286.135 11.83C285.389 11.83 284.689 11.83 284.035 11.83C283.429 11.83 283.009 11.83 282.775 11.83C282.775 11.7833 282.705 11.5267 282.565 11.06C282.472 10.5467 282.355 10.0333 282.215 9.52C282.122 9.00666 282.075 8.75 282.075 8.75ZM282.985 8.75V57.75H272.485V8.75H282.985ZM272.695 52.64V57.75H267.095V57.05C267.142 57.05 267.282 57.05 267.515 57.05C267.795 57.05 267.959 57.05 268.005 57.05C269.219 57.05 270.245 56.63 271.085 55.79C271.972 54.9033 272.439 53.8533 272.485 52.64H272.695ZM272.695 13.86H272.485C272.439 12.6467 271.972 11.62 271.085 10.78C270.245 9.89333 269.219 9.45 268.005 9.45C267.959 9.45 267.795 9.45 267.515 9.45C267.282 9.45 267.142 9.45 267.095 9.45V8.75H272.695V13.86ZM282.775 52.64H282.985C282.985 53.8533 283.429 54.9033 284.315 55.79C285.202 56.63 286.252 57.05 287.465 57.05C287.559 57.05 287.722 57.05 287.955 57.05C288.189 57.05 288.305 57.05 288.305 57.05V57.75H282.775V52.64ZM327.732 8.82L342.082 34.86L332.142 35.84L315.762 8.82H327.732ZM342.432 35.21V57.75H331.932V35.21H342.432ZM353.702 8.82H359.162L341.732 36.61L338.162 35.91L353.702 8.82ZM350.832 13.79C351.252 13.1367 351.369 12.4833 351.182 11.83C350.996 11.13 350.646 10.57 350.132 10.15C349.619 9.68333 349.036 9.45 348.382 9.45C348.382 9.45 348.242 9.45 347.962 9.45C347.682 9.45 347.542 9.45 347.542 9.45V8.75H364.272V9.45H363.292C361.846 9.45 360.469 9.87 359.162 10.71C357.902 11.55 356.922 12.5067 356.222 13.58L350.832 13.79ZM330.462 13.79L318.632 13.58C317.979 12.5067 317.022 11.55 315.762 10.71C314.502 9.87 313.126 9.45 311.632 9.45H310.652V8.75H333.822V9.45C333.822 9.45 333.659 9.45 333.332 9.45C333.052 9.45 332.912 9.45 332.912 9.45C331.886 9.45 331.092 9.94 330.532 10.92C330.019 11.8533 329.996 12.81 330.462 13.79ZM332.142 52.64V57.75H326.542V57.05C326.542 57.05 326.682 57.05 326.962 57.05C327.242 57.05 327.406 57.05 327.452 57.05C328.666 57.05 329.692 56.63 330.532 55.79C331.419 54.9033 331.886 53.8533 331.932 52.64H332.142ZM342.222 52.64H342.432C342.432 53.8533 342.876 54.9033 343.762 55.79C344.649 56.63 345.699 57.05 346.912 57.05C346.912 57.05 347.052 57.05 347.332 57.05C347.612 57.05 347.752 57.05 347.752 57.05V57.75H342.222V52.64ZM382.36 1.54C383.2 0.79333 384.203 0.373329 385.37 0.279997C386.537 0.186665 387.657 0.443331 388.73 1.05C389.85 1.61 390.69 2.52 391.25 3.78C392.137 5.69333 392.44 7.63 392.16 9.59C391.927 11.5033 391.273 13.23 390.2 14.77C389.173 16.31 387.843 17.5 386.21 18.34C384.623 19.1333 382.897 19.4133 381.03 19.18L380.82 18.27C381.94 17.85 382.803 17.1733 383.41 16.24C384.063 15.3067 384.343 14.28 384.25 13.16C384.157 11.9933 383.597 10.85 382.57 9.73C381.963 8.93667 381.497 8.05 381.17 7.07C380.89 6.04333 380.843 5.04 381.03 4.06C381.217 3.08 381.66 2.24 382.36 1.54ZM368.71 1.54C369.55 0.79333 370.553 0.373329 371.72 0.279997C372.887 0.186665 374.007 0.443331 375.08 1.05C376.2 1.61 377.04 2.52 377.6 3.78C378.487 5.69333 378.79 7.63 378.51 9.59C378.277 11.5033 377.623 13.23 376.55 14.77C375.523 16.31 374.193 17.5 372.56 18.34C370.973 19.1333 369.247 19.4133 367.38 19.18L367.17 18.27C368.29 17.85 369.153 17.1733 369.76 16.24C370.413 15.3067 370.693 14.28 370.6 13.16C370.507 11.9933 369.947 10.85 368.92 9.73C368.313 8.93667 367.847 8.05 367.52 7.07C367.24 6.04333 367.193 5.04 367.38 4.06C367.567 3.08 368.01 2.24 368.71 1.54Z" fill="#D4580A"/>
</svg>
